<svg width="384" height="129" viewBox="0 0 384 129" fill="none" xmlns="http://www.w3.org/2000/svg">
<g filter="url(#filter0_bd_200_8)">
<rect x="4" y="1" width="120" height="120" rx="10" fill="#AF0126"/>
</g>
<path d="M50.123 86.6973C50.9368 86.6973 51.8809 86.5996 52.9551 86.4043C54.0618 86.1764 55.1035 85.737 56.0801 85.0859C57.0566 84.4349 57.8867 83.5234 58.5703 82.3516C59.2539 81.1797 59.5957 79.6335 59.5957 77.7129L60.6211 76.6875H70.0938L71.2168 77.7129C71.2168 79.0801 71.054 80.5286 70.7285 82.0586C70.403 83.556 69.8822 85.0534 69.166 86.5508C68.4499 88.0482 67.5221 89.4805 66.3828 90.8477C65.276 92.2148 63.9414 93.4193 62.3789 94.4609C60.8164 95.5026 58.9935 96.3327 56.9102 96.9512C54.8594 97.5697 52.5482 97.8789 49.9766 97.8789C47.112 97.8789 44.6055 97.5046 42.457 96.7559C40.3086 96.0072 38.4531 95.0469 36.8906 93.875C35.3281 92.6706 34.0423 91.3197 33.0332 89.8223C32.0241 88.3249 31.2103 86.8275 30.5918 85.3301C30.0059 83.8327 29.5827 82.4004 29.3223 81.0332C29.0944 79.666 28.9805 78.5267 28.9805 77.6152V44.998C28.9805 43.8587 29.1107 42.5729 29.3711 41.1406C29.6641 39.7083 30.1198 38.2598 30.7383 36.7949C31.3893 35.3301 32.2357 33.9141 33.2773 32.5469C34.3516 31.1471 35.6699 29.9102 37.2324 28.8359C38.7949 27.7292 40.6341 26.8503 42.75 26.1992C44.8984 25.5482 47.3561 25.2227 50.123 25.2227C52.6621 25.2227 54.9408 25.5319 56.959 26.1504C59.0098 26.7689 60.8164 27.599 62.3789 28.6406C63.9414 29.6823 65.276 30.8867 66.3828 32.2539C67.5221 33.6211 68.4336 35.0371 69.1172 36.502C69.8333 37.9668 70.3542 39.4479 70.6797 40.9453C71.0378 42.4427 71.2168 43.8262 71.2168 45.0957L70.0938 46.1211H60.6211L59.5957 45.0957C59.5957 43.11 59.2214 41.5312 58.4727 40.3594C57.724 39.1875 56.8288 38.3086 55.7871 37.7227C54.778 37.1042 53.7363 36.7298 52.6621 36.5996C51.6204 36.4368 50.7741 36.3717 50.123 36.4043C49.3092 36.4043 48.349 36.502 47.2422 36.6973C46.1354 36.8926 45.0775 37.3158 44.0684 37.9668C43.0918 38.5853 42.2454 39.4805 41.5293 40.6523C40.8457 41.8242 40.5039 43.403 40.5039 45.3887V77.4199C40.5039 79.4056 40.8457 81.0169 41.5293 82.2539C42.2129 83.4583 43.043 84.3861 44.0195 85.0371C45.0286 85.6882 46.0866 86.1276 47.1934 86.3555C48.3001 86.5833 49.2767 86.6973 50.123 86.6973ZM112.584 50.8086L102.672 75.8086L101.793 76.3945H94.5664L93.6875 75.8086L83.7754 50.7109V96.0234L82.6523 97H73.2773L72.252 96.0234V26.6875L73.2773 25.7109H83.7754L84.6543 26.2969L98.1797 58.8164L111.461 26.2969L112.389 25.7109H123.082L124.059 26.6875V96.0234L123.082 97H113.658L112.584 96.0234V50.8086Z" fill="white"/>
<path d="M129.098 97L128.072 96.0234V26.6875L129.098 25.7109H149.996C153.251 25.7109 156.018 26.1667 158.297 27.0781C160.576 27.957 162.464 29.0801 163.961 30.4473C165.458 31.7819 166.614 33.263 167.428 34.8906C168.274 36.5182 168.893 38.0645 169.283 39.5293C169.706 40.9941 169.967 42.2962 170.064 43.4355C170.162 44.5423 170.211 45.2585 170.211 45.584V50.5156C170.211 50.8737 170.162 51.6224 170.064 52.7617C169.967 53.8685 169.723 55.1706 169.332 56.668C168.941 58.1328 168.323 59.6953 167.477 61.3555C166.663 62.9831 165.523 64.4805 164.059 65.8477C162.594 67.2148 160.738 68.3542 158.492 69.2656C156.279 70.1445 153.577 70.584 150.387 70.584H139.596V96.0234L138.473 97H129.098ZM139.596 37.0879V59.207H149.996C151.005 59.207 152.031 59.0931 153.072 58.8652C154.114 58.6374 155.058 58.1979 155.904 57.5469C156.751 56.8958 157.434 56.0007 157.955 54.8613C158.508 53.722 158.785 52.2409 158.785 50.418V45.7793C158.785 43.9238 158.476 42.4264 157.857 41.2871C157.239 40.1478 156.474 39.2689 155.562 38.6504C154.651 38.0319 153.674 37.625 152.633 37.4297C151.591 37.2018 150.647 37.0879 149.801 37.0879H139.596ZM221.754 96.2188L220.729 97H210.914L209.938 96.2188L195.143 26.8828L196.119 25.7109H205.934L206.959 26.4922L216.334 74.4902L227.418 26.5898L228.443 25.8086H236.549L237.525 26.5898L248.658 74.4902L258.033 26.4922L259.059 25.7109H268.824L269.85 26.8828L255.055 96.2188L254.029 97H244.215L243.238 96.2188L232.545 51.1016L221.754 96.2188ZM279.234 97H269.762L268.736 96.0234V26.6875L269.762 25.7109H290.66C293.329 25.7109 295.689 26.0365 297.74 26.6875C299.824 27.306 301.614 28.1523 303.111 29.2266C304.609 30.2682 305.862 31.4889 306.871 32.8887C307.913 34.2559 308.743 35.6719 309.361 37.1367C309.98 38.6016 310.419 40.0664 310.68 41.5312C310.94 42.9635 311.07 44.2819 311.07 45.4863V48.8066C311.07 50.3691 310.859 52.0456 310.436 53.8359C310.045 55.5938 309.394 57.319 308.482 59.0117C307.604 60.7044 306.448 62.2669 305.016 63.6992C303.583 65.1315 301.826 66.3034 299.742 67.2148L313.17 95.4863L312.242 97H301.549L300.67 96.4141L287.73 68.6797H280.26V96.0234L279.234 97ZM280.26 37.0879V57.4004H290.66C291.669 57.4004 292.695 57.2865 293.736 57.0586C294.778 56.7982 295.722 56.3587 296.568 55.7402C297.415 55.0892 298.098 54.194 298.619 53.0547C299.173 51.9154 299.449 50.4668 299.449 48.709V45.7793C299.449 43.9238 299.14 42.4264 298.521 41.2871C297.903 40.1478 297.138 39.2689 296.227 38.6504C295.315 38.0319 294.339 37.625 293.297 37.4297C292.255 37.2018 291.311 37.0879 290.465 37.0879H280.26ZM326.9 82.5957L327.926 83.6211V96.0234L326.9 97H314.547L313.521 96.0234V83.6211L314.547 82.5957H326.9Z" fill="black"/>
<defs>
<filter id="filter0_bd_200_8" x="-11" y="-14" width="150" height="150" filterUnits="userSpaceOnUse" color-interpolation-filters="sRGB">
<feFlood flood-opacity="0" result="BackgroundImageFix"/>
<feGaussianBlur in="BackgroundImageFix" stdDeviation="7.5"/>
<feComposite in2="SourceAlpha" operator="in" result="effect1_backgroundBlur_200_8"/>
<feColorMatrix in="SourceAlpha" type="matrix" values="0 0 0 0 0 0 0 0 0 0 0 0 0 0 0 0 0 0 127 0" result="hardAlpha"/>
<feOffset dy="4"/>
<feGaussianBlur stdDeviation="2"/>
<feComposite in2="hardAlpha" operator="out"/>
<feColorMatrix type="matrix" values="0 0 0 0 0 0 0 0 0 0 0 0 0 0 0 0 0 0 0.25 0"/>
<feBlend mode="normal" in2="effect1_backgroundBlur_200_8" result="effect2_dropShadow_200_8"/>
<feBlend mode="normal" in="SourceGraphic" in2="effect2_dropShadow_200_8" result="shape"/>
</filter>
</defs>
</svg>
