<svg width="175" height="165" viewBox="0 0 175 165" fill="none" xmlns="http://www.w3.org/2000/svg">
<line x1="10" y1="109" x2="165" y2="109" stroke="black" stroke-width="20" stroke-linecap="round"/>
<line x1="10" y1="155" x2="165" y2="155" stroke="black" stroke-width="20" stroke-linecap="round"/>
<path d="M37.4858 38.3564L30.0518 57.1064L29.3926 57.5459H23.9727L23.3135 57.1064L15.8794 38.2832V72.2676L15.0371 73H8.00586L7.23682 72.2676V20.2656L8.00586 19.5332H15.8794L16.5386 19.9727L26.6826 44.3623L36.6436 19.9727L37.3394 19.5332H45.3594L46.0918 20.2656V72.2676L45.3594 73H38.2915L37.4858 72.2676V38.3564ZM56.9961 19.5332H85.7803L86.6226 20.2656V27.2603L85.7803 27.9927H64.8696V42.0186H84.2056L84.9746 42.7876V49.7456L84.2056 50.5146H64.8696V64.5405H85.7803L86.6226 65.2729V72.2676L85.7803 73H56.9961L56.2271 72.2676V20.2656L56.9961 19.5332ZM102.324 73H95.293L94.5239 72.2676V20.2656L95.293 19.5332H103.02L103.679 19.9727L117.925 53.4077V20.2656L118.694 19.5332H125.652L126.494 20.2656V72.2676L125.652 73H117.998L117.339 72.5605L103.167 39.7114V72.2676L102.324 73ZM166.732 19.5332L167.464 20.2656V58.5347C167.464 59.4624 167.367 60.4878 167.171 61.6108C166.976 62.7095 166.634 63.8203 166.146 64.9434C165.682 66.0664 165.047 67.1528 164.242 68.2026C163.46 69.2524 162.484 70.1802 161.312 70.9858C160.165 71.7915 158.797 72.4385 157.21 72.9268C155.624 73.415 153.792 73.6592 151.717 73.6592C149.618 73.6592 147.774 73.415 146.188 72.9268C144.601 72.4385 143.221 71.7915 142.049 70.9858C140.877 70.1558 139.889 69.2158 139.083 68.166C138.302 67.1162 137.667 66.0298 137.179 64.9067C136.715 63.7593 136.385 62.6362 136.19 61.5376C135.995 60.4146 135.897 59.3892 135.897 58.4614V20.2656L136.629 19.5332H143.697L144.43 20.2656V58.4614C144.43 59.9751 144.71 61.1836 145.272 62.0869C145.833 62.9902 146.493 63.686 147.25 64.1743C148.031 64.6382 148.836 64.9556 149.667 65.1265C150.497 65.2729 151.18 65.3462 151.717 65.3462C152.254 65.3462 152.926 65.2729 153.731 65.1265C154.562 64.9556 155.355 64.6382 156.112 64.1743C156.893 63.686 157.552 62.9902 158.089 62.0869C158.651 61.1836 158.932 59.9751 158.932 58.4614V20.2656L159.664 19.5332H166.732Z" fill="black"/>
</svg>
